<svg width="477" height="395" viewBox="0 0 477 395" fill="none" xmlns="http://www.w3.org/2000/svg">
<g clip-path="url(#clip0_19:135)">
<path d="M358.642 126.865C358.642 126.865 409.658 143.756 419.442 159.348C429.225 174.938 358.642 126.865 358.642 126.865Z" fill="#FFD60A"/>
<path d="M446.788 180.93C447.144 180.956 447.5 180.907 447.833 180.789C448.167 180.67 448.471 180.485 448.724 180.244C450.311 178.869 449.014 176.271 447.9 174.436C432.975 149.842 357.928 123.924 354.742 122.833L347.878 120.482L353.756 124.621C353.973 124.774 375.804 140.136 398.155 154.609C432.901 177.109 443.217 180.93 446.788 180.93ZM361.412 127.43C381.117 134.762 434.223 155.956 446.061 175.467C447.637 178.065 447.304 178.717 447.299 178.722C446.981 179.053 442.948 181.129 399.603 153.08C384.494 143.302 369.587 133.091 361.412 127.43Z" fill="#001D3D"/>
<path d="M359.747 109.994C359.747 109.994 406.76 105.349 421.022 113.288C435.285 121.226 359.747 109.994 359.747 109.994Z" fill="#FFD60A"/>
<path d="M423.811 117.587C440.268 117.587 441.398 115.051 441.915 113.892C442.95 111.572 440.071 109.388 439.126 108.67C418.72 93.1821 356.739 108.833 354.11 109.507L349.069 110.799L354.233 111.508C354.442 111.537 375.208 114.376 396.165 116.154C408.387 117.19 417.3 117.587 423.811 117.587ZM409.39 103.94C420.981 103.94 431.585 105.554 437.806 110.275C439.682 111.7 440.148 112.66 439.958 113.086C439.481 114.154 434.928 117.388 396.352 114.115C381.978 112.896 367.693 111.176 360.107 110.211C369.828 108.06 390.87 103.94 409.39 103.94Z" fill="#001D3D"/>
<path d="M346.293 102.035C346.293 102.035 369.94 47.4531 364.211 42.0503C358.482 36.6477 346.293 102.035 346.293 102.035Z" fill="#FFD60A"/>
<path d="M344.985 106.837L347.925 99.614C347.997 99.4371 355.192 81.7211 361.121 63.482C373.332 25.9189 368.327 22.7111 366.682 21.657C366.277 21.3775 365.8 21.2086 365.302 21.1681C364.805 21.1278 364.305 21.2175 363.856 21.4278C354.632 25.5592 346.745 91.6105 345.876 99.1284L344.985 106.837ZM365.063 23.2062C365.221 23.2137 365.375 23.2672 365.502 23.3596C371.378 27.1259 359.465 64.2049 348.992 91.1929C352.584 63.3652 359.198 25.7715 364.756 23.2822C364.851 23.2353 364.955 23.2093 365.063 23.2062Z" fill="#001D3D"/>
<path d="M337.355 114.037C337.355 114.037 324.663 58.8674 311.366 58.8674C298.069 58.8674 337.355 114.037 337.355 114.037Z" fill="#FFD60A"/>
<path d="M340.704 117.844L339.448 113.302C338.527 109.97 316.611 31.7163 292.653 31.7163C289.369 31.7163 287.952 33.1975 287.341 34.4399C280.953 47.445 331.781 107.419 337.597 114.214L340.704 117.844ZM292.654 33.7625C311.776 33.7625 330.784 91.8607 335.996 109.079C318.846 88.5961 284.661 44.6904 289.266 35.3136C289.455 34.93 290.028 33.7625 292.654 33.7625Z" fill="#001D3D"/>
<path d="M329.905 114.588C329.905 114.588 286.268 88.0806 196.864 96.1721C107.461 104.263 329.905 114.588 329.905 114.588Z" fill="#FFD60A"/>
<path d="M332.882 115.693L330.597 113.811C330.134 113.43 319.01 104.39 296.721 97.1217C276.21 90.431 242.018 84.1285 195.613 92.0956C176.007 95.4612 173.461 97.969 173.632 100.178C173.8 102.36 174.195 107.47 252.53 112.208C290.808 114.523 329.488 115.601 329.875 115.611L332.882 115.693ZM237.728 90.4205C288.135 90.4205 317.934 107.637 326.575 113.465C316.346 113.15 284.364 112.083 252.659 110.165C179.868 105.763 175.826 100.947 175.755 100.026C175.747 99.9277 175.801 97.5748 195.987 94.1098C209.76 91.6987 223.728 90.4641 237.728 90.4205Z" fill="#001D3D"/>
<path d="M302.233 117.696C302.233 117.696 225.795 116.716 221.501 124.562C217.207 132.407 302.233 117.696 302.233 117.696Z" fill="#FFD60A"/>
<path d="M211.712 137.745C236.111 137.745 294.757 120.904 302.541 118.637L308.92 116.778L302.256 116.634C292.479 116.424 206.574 115.05 201.17 131.676C200.53 133.644 201.272 134.909 202.008 135.622C203.546 137.113 206.987 137.745 211.712 137.745ZM295.26 118.586C259.407 128.688 209.622 140.101 203.519 134.181C203.189 133.86 202.854 133.355 203.201 132.286C207.04 120.475 265.631 118.394 295.26 118.586Z" fill="#001D3D"/>
<path d="M317.133 125.842C317.133 125.842 270.965 146.355 279.986 152.667C289.008 158.979 317.133 125.842 317.133 125.842Z" fill="#FFD60A"/>
<path d="M251.219 177.484C273.552 177.484 319.026 125.848 321.141 123.431L324.134 120.011L319.891 121.839C316.795 123.173 244.037 154.699 242.444 170.491C242.233 172.585 243.189 174.416 245.209 175.788C246.976 176.946 249.08 177.541 251.219 177.484ZM316.377 125.629C298.818 144.994 259.75 183.152 246.437 174.116C245.019 173.154 244.425 172.065 244.563 170.688C245.708 159.334 293.254 135.924 316.377 125.629Z" fill="#001D3D"/>
<path d="M240.501 150.397C240.501 150.397 202.186 165.744 210.701 175.974C219.215 186.205 240.501 150.397 240.501 150.397Z" fill="#FFD60A"/>
<path d="M311.812 138.12C311.812 138.12 231.987 222.014 239.438 227.13C246.888 232.245 311.812 138.12 311.812 138.12Z" fill="#FFD60A"/>
<path d="M326.711 131.981C326.711 131.981 293.104 185.787 299.962 191.018C306.822 196.249 326.711 131.981 326.711 131.981Z" fill="#FFD60A"/>
<path d="M288.671 211.174C289.091 211.171 289.507 211.104 289.904 210.975C302.225 207.084 327.058 137.194 329.849 129.238L332.331 122.162L327.96 128.336C327.83 128.52 314.767 147.003 303.174 166.123C281.745 201.471 283.521 208.422 286.721 210.575C287.29 210.965 287.973 211.175 288.671 211.174ZM325.125 136.121C316.067 160.839 297.83 206.318 289.24 209.031C289.029 209.117 288.8 209.149 288.573 209.126C288.345 209.103 288.128 209.025 287.942 208.899C286.184 207.716 284.326 201.28 305.01 167.161C312.347 155.057 320.28 143.206 325.125 136.121Z" fill="#001D3D"/>
<path d="M340.93 129.934C340.93 129.934 371.178 215.73 352.617 214.846C334.056 213.961 340.93 129.934 340.93 129.934Z" fill="#FFD60A"/>
<path d="M360.145 229.183C363.403 229.183 365.908 227.96 367.596 225.542C379.57 208.386 344.097 132.724 342.582 129.512L340.964 126.083L340.554 129.828C340.219 132.891 332.537 205.094 349.939 224.382C352.69 227.43 355.963 229.043 359.666 229.175C359.828 229.181 359.988 229.183 360.145 229.183ZM342.298 133.962C349.31 149.463 375.731 210.214 365.827 224.402C364.478 226.336 362.489 227.232 359.745 227.13C356.611 227.019 353.929 225.68 351.547 223.042C336.999 206.917 340.929 149.541 342.298 133.962Z" fill="#001D3D"/>
<path d="M351.377 134.199C351.377 134.199 402.151 190.022 397.504 195.902C392.857 201.781 351.377 134.199 351.377 134.199Z" fill="#FFD60A"/>
<path d="M412.779 216.253C413.452 216.263 414.108 216.054 414.64 215.66C415.002 215.377 415.297 215.023 415.505 214.622C415.714 214.221 415.83 213.781 415.848 213.333C417.123 199.466 349.538 127.204 346.66 124.134L339.857 116.877L344.949 125.332C347.119 128.935 398.25 213.598 412.019 216.179C412.269 216.227 412.523 216.25 412.779 216.253ZM352.258 133.259C374.651 157.706 414.613 203.526 413.728 213.154C413.735 213.321 413.704 213.489 413.636 213.643C413.567 213.797 413.464 213.935 413.333 214.045C413.202 214.132 413.052 214.187 412.895 214.209C412.737 214.231 412.577 214.217 412.426 214.17C402.911 212.387 369.671 161.427 352.258 133.259Z" fill="#001D3D"/>
<path d="M366.616 96.6094C366.616 96.6094 410.882 46.3465 451.815 51.2176C492.749 56.0889 366.616 96.6094 366.616 96.6094Z" fill="#FFD60A"/>
<path d="M360.716 98.9581L364.2 98.1927C364.48 98.1313 392.456 91.9632 420.116 84.0946C476.756 67.9821 476.94 60.5731 476.999 58.1387C477.072 55.2013 473.961 52.9293 467.489 51.1928C443.47 44.748 416.349 57.4428 397.833 69.2301C385.4 77.2186 373.8 86.3462 363.197 96.4847L360.716 98.9581ZM453.743 51.4901C458.193 51.4684 462.625 52.0316 466.916 53.1641C472.091 54.5519 474.915 56.3014 474.871 58.0903C474.629 67.9132 411.815 85.4294 367.394 95.3837C377.894 85.7006 417.567 51.4901 453.743 51.4901Z" fill="#001D3D"/>
<path d="M401.214 93.1027C401.214 93.1027 459.752 89.0103 455.495 99.2413C451.238 109.472 401.214 93.1027 401.214 93.1027Z" fill="#FFD60A"/>
<path d="M386.314 55.2478C386.314 55.2478 389.506 40.9243 394.828 43.9936C400.15 47.063 386.314 55.2478 386.314 55.2478Z" fill="#FFD60A"/>
<path d="M332.389 65.3826C332.389 65.3826 317.784 6.38884 324.403 6.17242C331.023 5.956 332.389 65.3826 332.389 65.3826Z" fill="#FFD60A"/>
<path d="M335.107 78.444L335.227 70.6093C335.265 68.093 336.076 8.88774 328.07 1.07557C327.764 0.746867 327.391 0.481862 326.974 0.296885C326.558 0.111906 326.106 0.0108681 325.648 0C325.203 0.00174684 324.764 0.104293 324.368 0.299318C323.972 0.494344 323.629 0.776366 323.367 1.12252C317.206 8.70889 331.481 64.5052 333.13 70.8427L335.107 78.444ZM325.648 2.04621C325.753 2.04621 326.076 2.04621 326.553 2.51181C331.842 7.67131 333.069 41.9949 333.141 62.1807C327.278 38.1277 321.304 6.9869 325.045 2.38192C325.107 2.28138 325.195 2.1978 325.301 2.13908C325.406 2.08034 325.526 2.04838 325.648 2.04621Z" fill="#001D3D"/>
<path d="M264.981 73.6636C264.981 73.6636 258.595 58.3171 252.209 62.4095C245.823 66.5019 264.981 73.6636 264.981 73.6636Z" fill="#FFD60A"/>
<path d="M325.648 209.737C325.648 209.737 334.162 270.1 318.197 269.077C302.232 268.054 325.648 209.737 325.648 209.737Z" fill="#FFD60A"/>
<path d="M281.109 196.01C281.109 196.01 289.267 182.939 289.267 173.791C289.267 173.791 303.543 159.413 299.464 155.492C295.385 151.572 286.547 166.601 286.547 166.601C286.547 166.601 302.863 148.958 298.104 146.343C293.346 143.729 277.709 163.334 277.709 163.334L272.271 160.72C272.271 160.72 283.822 133.332 275.67 132.62C271.931 132.293 263.433 158.76 263.433 158.76L254.595 180.325C254.595 180.325 251.197 188.167 252.556 192.742C253.384 195.539 254.065 198.374 254.595 201.237L281.109 196.01Z" fill="#FFB9B9"/>
<path opacity="0.1" d="M260.034 199.277C260.034 199.277 255.275 192.089 256.998 181.112C258.719 170.136 268.192 163.988 268.192 163.988C268.192 163.988 274.31 168.562 268.192 180.325C268.192 180.325 275.67 186.86 269.551 197.317" fill="black"/>
<path d="M257.315 199.277C257.315 199.277 252.556 192.089 254.278 181.112C256 170.136 265.473 163.988 265.473 163.988C265.473 163.988 271.591 168.562 265.473 180.325C265.473 180.325 272.95 186.86 266.832 197.317" fill="#FFB9B9"/>
<path opacity="0.1" d="M276.01 163.008L279.749 157.453C279.749 157.453 297.425 154.839 295.385 160.72C293.346 166.601 285.188 163.988 285.188 163.988L280.429 168.562L276.01 163.008Z" fill="black"/>
<path d="M272.95 162.681L278.39 155.492C278.39 155.492 296.064 152.879 294.025 158.76C291.986 164.641 283.828 162.027 283.828 162.027L279.07 166.601L272.95 162.681Z" fill="#FFB9B9"/>
<path d="M146.842 248.615L150.242 274.755L97.2151 278.024V246.655L146.842 248.615Z" fill="#FFB9B9"/>
<path d="M0 395L43.0029 312.325C45.5719 304.147 53.5944 290.828 78.52 282.272L97.2153 267.068L111.152 266.587L166.898 258.745C166.898 258.745 209.726 256.131 237.599 272.469L245.078 269.201C245.078 269.201 257.315 227.377 251.876 197.317L283.149 194.703C283.149 194.703 300.144 265.934 291.985 287.5C283.828 309.065 253.915 324.748 253.915 324.748L227.402 350.236L217.205 394.674H58.1252L55.5939 383.013L43.169 394.674L0 395Z" fill="#CFCCE0"/>
<path d="M60.1256 246.659C110.211 259.66 159.438 260.579 207.625 246.859C213.29 245.246 217.162 240.465 217.162 235.04V99.7284C217.162 93.674 212.369 88.5094 205.839 87.5248C160.381 80.6721 112.227 81.2029 61.8611 87.7807C55.2061 88.6498 50.2659 93.8737 50.2659 100.023V234.753C50.2659 240.293 54.299 245.146 60.1256 246.659Z" fill="#CFCCE0"/>
<path d="M163.418 154.066C163.418 154.066 174.937 137.881 167.849 133.622C160.759 129.363 150.125 141.288 150.125 141.288C150.125 141.288 136.834 130.215 129.744 134.474C122.655 138.733 136.834 154.066 136.834 154.066C136.834 154.066 126.199 156.621 125.313 163.436C124.427 170.25 120.883 188.139 135.947 188.991C144.017 189.447 148.527 187.214 150.976 185.042C151.866 184.275 153.017 183.844 154.213 183.83C155.41 183.817 156.571 184.221 157.481 184.968C162.588 189.106 171.789 193.874 178.482 182.176C181.14 164.288 163.418 154.066 163.418 154.066Z" fill="#001D3D"/>
<path d="M78.3472 155.77C78.3472 155.77 66.8274 139.585 73.9165 135.326C81.0057 131.066 91.6394 142.992 91.6394 142.992C91.6394 142.992 104.932 131.919 112.02 136.177C119.11 140.437 104.932 155.77 104.932 155.77C104.932 155.77 115.565 158.325 116.452 165.139C117.338 171.954 120.883 189.843 105.818 190.694C97.7475 191.151 93.2377 188.918 90.7895 186.746C89.8986 185.978 88.7481 185.548 87.5516 185.534C86.3552 185.521 85.1943 185.925 84.2846 186.672C79.1762 190.809 69.976 195.578 63.2827 183.88C60.6243 165.992 78.3472 155.77 78.3472 155.77Z" fill="#001D3D"/>
<path d="M177.403 200.003C177.403 200.003 160.78 212.869 125.333 212.058C89.8861 211.246 78.423 209.855 70.8462 201.824C63.2695 193.793 61.0238 203.069 63.3765 209.149C65.7292 215.229 68.7509 225.605 86.4095 227.288C98.0349 228.394 123.161 228.657 138.974 228.707C151.264 228.805 163.416 226.206 174.505 221.108C174.652 221.041 174.798 220.972 174.943 220.903C178.307 219.305 181.139 216.836 183.12 213.773C185.101 210.711 186.151 207.177 186.152 203.571C186.151 200.705 185.626 199.157 183.685 198.592C180.188 197.575 177.403 200.003 177.403 200.003Z" fill="#001D3D"/>
<path d="M126.554 258.945C153.646 258.958 180.584 255.03 206.454 247.294C209.654 246.352 212.454 244.446 214.441 241.857C216.429 239.268 217.498 236.134 217.491 232.917V74.3988C217.502 70.8298 216.188 67.3741 213.785 64.653C211.383 61.9318 208.05 60.1238 204.384 59.5539C155.566 51.819 101.508 51.9194 43.7143 59.8519C39.9939 60.3801 36.5938 62.173 34.1312 64.9053C31.6686 67.6375 30.3068 71.1281 30.293 74.7432V232.581C30.3069 235.858 31.4269 239.041 33.4848 241.652C35.5426 244.264 38.4269 246.163 41.7039 247.064C70.0045 254.783 97.983 258.779 124.863 258.941C125.424 258.944 125.992 258.945 126.554 258.945ZM128.437 54.9374C153.81 54.856 179.147 56.7666 204.196 60.65C207.591 61.1778 210.678 62.8523 212.904 65.3725C215.128 67.8928 216.345 71.0933 216.335 74.3988V232.917C216.342 235.896 215.351 238.8 213.51 241.197C211.669 243.595 209.075 245.361 206.11 246.233C154.461 261.688 99.253 261.608 42.0199 245.994L41.862 246.529L42.0199 245.994C38.9843 245.162 36.3123 243.402 34.4059 240.983C32.4995 238.564 31.4616 235.616 31.4485 232.581V74.7432C31.4611 71.395 32.7222 68.1623 35.0028 65.6318C37.2834 63.1012 40.4323 61.4405 43.878 60.9513C71.8812 57.0296 100.138 55.0199 128.437 54.9374Z" fill="#001D3D"/>
<path d="M131.987 78.4408C144.717 78.4408 155.61 77.892 164.53 77.1481C192.583 74.809 207.701 70.0885 207.85 70.041L207.488 68.9861C207.339 69.0333 192.314 73.7211 164.376 76.0459C138.591 78.1925 96.2185 78.7061 40.7966 68.9671L40.5889 70.06C76.9997 76.4579 107.802 78.4408 131.987 78.4408Z" fill="#001D3D"/>
</g>
<defs>
<clipPath id="clip0_19:135">
<rect width="477" height="395" fill="white"/>
</clipPath>
</defs>
</svg>
